<svg width="14" height="7" viewBox="0 0 14 7" fill="none" xmlns="http://www.w3.org/2000/svg">
<path d="M12.3485 6.65782C12.2525 6.63382 12.1805 6.58582 12.1325 6.51382C12.0845 6.44182 12.0565 6.35782 12.0485 6.26182C12.0485 6.16582 12.0565 6.06582 12.0725 5.96182C12.0965 5.85782 12.1245 5.76182 12.1565 5.67382C11.9645 5.88182 11.8005 6.05382 11.6645 6.18982C11.5285 6.32582 11.4005 6.43382 11.2805 6.51382C11.1605 6.59382 11.0405 6.64982 10.9205 6.68182C10.8005 6.70582 10.6645 6.71782 10.5125 6.71782C10.2805 6.71782 10.1285 6.64982 10.0565 6.51382C9.98447 6.36982 9.96447 6.19782 9.99647 5.99782C10.0285 5.78982 10.1005 5.57382 10.2125 5.34982C10.3245 5.12582 10.4525 4.92982 10.5965 4.76182C10.7485 4.57782 10.9285 4.40582 11.1365 4.24582C11.3525 4.08582 11.5725 3.96582 11.7965 3.88582C12.0205 3.79782 12.2365 3.76182 12.4445 3.77782C12.6605 3.79382 12.8405 3.88982 12.9845 4.06582C13.0565 4.12982 13.0885 4.19382 13.0805 4.25782C13.0805 4.32182 13.0565 4.37382 13.0085 4.41382C12.9685 4.45382 12.9085 4.47782 12.8285 4.48582C12.7485 4.48582 12.6685 4.46182 12.5885 4.41382C12.4605 4.33382 12.3205 4.30582 12.1685 4.32982C12.0245 4.35382 11.8805 4.40982 11.7365 4.49782C11.5925 4.57782 11.4525 4.68182 11.3165 4.80982C11.1885 4.93782 11.0765 5.07382 10.9805 5.21782C10.8925 5.35382 10.8245 5.48582 10.7765 5.61382C10.7285 5.74182 10.7165 5.84582 10.7405 5.92582C10.7725 6.05382 10.8325 6.12182 10.9205 6.12982C11.0165 6.13782 11.1205 6.10982 11.2325 6.04582C11.3525 5.98182 11.4765 5.89382 11.6045 5.78182C11.7325 5.66182 11.8525 5.54182 11.9645 5.42182C12.0845 5.29382 12.1885 5.17782 12.2765 5.07382C12.3645 4.96182 12.4245 4.87782 12.4565 4.82182C12.5045 4.75782 12.5525 4.71782 12.6005 4.70182C12.6565 4.67782 12.7045 4.67382 12.7445 4.68982C12.7925 4.70582 12.8245 4.74182 12.8405 4.79782C12.8645 4.84582 12.8645 4.90582 12.8405 4.97782C12.8165 5.04182 12.7885 5.13782 12.7565 5.26582C12.7245 5.39382 12.6965 5.52182 12.6725 5.64982C12.6565 5.77782 12.6485 5.88982 12.6485 5.98582C12.6485 6.08182 12.6725 6.12982 12.7205 6.12982C12.8805 6.12982 13.0405 6.05382 13.2005 5.90182C13.3605 5.74182 13.5085 5.58182 13.6445 5.42182C13.7005 5.34982 13.7565 5.30182 13.8125 5.27782C13.8685 5.25382 13.9125 5.24982 13.9445 5.26582C13.9765 5.28182 13.9885 5.31782 13.9805 5.37382C13.9805 5.42182 13.9485 5.48982 13.8845 5.57782C13.8125 5.67382 13.7085 5.78982 13.5725 5.92582C13.4445 6.06182 13.3045 6.19382 13.1525 6.32182C13.0085 6.44182 12.8645 6.53782 12.7205 6.60982C12.5765 6.68182 12.4525 6.69782 12.3485 6.65782Z" fill="white"/>
<path d="M9.85809 2.93782C9.88209 2.81782 9.94609 2.71782 10.0501 2.63782C10.1621 2.54982 10.2821 2.50582 10.4101 2.50582C10.5381 2.50582 10.6381 2.54982 10.7101 2.63782C10.7901 2.71782 10.8181 2.81782 10.7941 2.93782C10.7621 3.06582 10.6901 3.16982 10.5781 3.24982C10.4741 3.32182 10.3581 3.35782 10.2301 3.35782C10.1021 3.35782 9.99809 3.32182 9.91809 3.24982C9.84609 3.16982 9.82609 3.06582 9.85809 2.93782ZM10.3501 5.57782C10.2461 5.71382 10.1261 5.84982 9.99009 5.98582C9.85409 6.12182 9.71009 6.24182 9.55809 6.34582C9.40609 6.44982 9.24609 6.52982 9.07809 6.58582C8.91009 6.64182 8.73809 6.65782 8.56209 6.63382C8.40209 6.60982 8.29009 6.55382 8.22609 6.46582C8.16209 6.37782 8.12609 6.27382 8.11809 6.15382C8.11809 6.02582 8.14209 5.88582 8.19009 5.73382C8.24609 5.57382 8.31809 5.40982 8.40609 5.24182C8.49409 5.08182 8.59409 4.90582 8.70609 4.71382C8.82609 4.52182 8.96609 4.30982 9.12609 4.07782C9.23009 3.90982 9.34609 3.79782 9.47409 3.74182C9.61009 3.67782 9.71809 3.66582 9.79809 3.70582C9.88609 3.73782 9.93409 3.81382 9.94209 3.93382C9.95009 4.04582 9.89009 4.18982 9.76209 4.36582C9.69009 4.49382 9.58609 4.64582 9.45009 4.82182C9.32209 4.98982 9.20209 5.16182 9.09009 5.33782C8.97809 5.51382 8.89409 5.67782 8.83809 5.82982C8.78209 5.98182 8.79009 6.09782 8.86209 6.17782C8.99009 6.30582 9.21009 6.24982 9.52209 6.00982C9.65809 5.89782 9.78209 5.78182 9.89409 5.66182C10.0061 5.54182 10.0821 5.46182 10.1221 5.42182C10.1781 5.34982 10.2301 5.30582 10.2781 5.28982C10.3261 5.27382 10.3661 5.27382 10.3981 5.28982C10.4301 5.30582 10.4421 5.34182 10.4341 5.39782C10.4341 5.44582 10.4061 5.50582 10.3501 5.57782Z" fill="white"/>
<path d="M8.74941 3.22582L8.36541 3.27382C8.32541 3.33782 8.2854 3.39782 8.2454 3.45382C8.2134 3.50982 8.1814 3.56581 8.14941 3.62181C7.9654 3.92582 7.78141 4.24182 7.5974 4.56982C7.4214 4.88982 7.24141 5.23382 7.05741 5.60182C6.99341 5.72982 6.95741 5.84581 6.94941 5.94981C6.94941 6.05381 6.97741 6.12982 7.03341 6.17782C7.08141 6.21782 7.16541 6.22981 7.28541 6.21381C7.40541 6.19781 7.54541 6.12582 7.70541 5.99782C7.81741 5.90182 7.92941 5.79382 8.04141 5.67382C8.15341 5.54582 8.2254 5.46181 8.2574 5.42181C8.3134 5.34981 8.36941 5.30581 8.42541 5.28981C8.48141 5.26581 8.52541 5.26581 8.5574 5.28981C8.58941 5.30581 8.60141 5.34182 8.59341 5.39782C8.59341 5.44582 8.56541 5.50982 8.50941 5.58982C8.41341 5.71782 8.30141 5.84982 8.17341 5.98582C8.04541 6.12182 7.9014 6.24581 7.74141 6.35781C7.58941 6.46181 7.42541 6.54582 7.24941 6.60982C7.07341 6.67382 6.88541 6.69782 6.68541 6.68182C6.54141 6.67382 6.43741 6.62582 6.37341 6.53782C6.30941 6.44182 6.27341 6.32582 6.26541 6.18982C6.25741 6.04582 6.27741 5.88982 6.32541 5.72182C6.37341 5.55382 6.43741 5.38982 6.51741 5.22982C6.69341 4.89382 6.86141 4.57382 7.02141 4.26982C7.18941 3.95782 7.36541 3.64182 7.54941 3.32182H7.44141C7.29741 3.32982 7.20541 3.29382 7.16541 3.21382C7.13341 3.12582 7.13741 3.03382 7.17741 2.93782C7.22541 2.84182 7.30141 2.75782 7.40541 2.68581C7.50941 2.60581 7.63341 2.56982 7.77741 2.57782L7.95741 2.60182C8.05341 2.42582 8.1494 2.25382 8.2454 2.08582C8.3494 1.90981 8.45741 1.72981 8.56941 1.54581C8.66541 1.39381 8.76941 1.28981 8.88141 1.23381C9.00141 1.16981 9.10141 1.15382 9.18141 1.18581C9.26941 1.20982 9.3214 1.27781 9.3374 1.38981C9.3614 1.50181 9.32141 1.65381 9.21741 1.84581C9.13741 2.00581 9.05741 2.15382 8.97741 2.28982C8.90541 2.41782 8.82541 2.54581 8.73741 2.67381L9.2054 2.70982C9.2934 2.70982 9.3534 2.73382 9.38541 2.78182C9.41741 2.82982 9.42541 2.88182 9.40941 2.93782C9.40141 2.99382 9.36941 3.04982 9.31341 3.10582C9.25741 3.15381 9.1894 3.18182 9.10941 3.18982L8.74941 3.22582Z" fill="white"/>
<path d="M6.07903 2.93782C6.10303 2.81782 6.16703 2.71782 6.27103 2.63782C6.38303 2.54982 6.50303 2.50582 6.63103 2.50582C6.75903 2.50582 6.85903 2.54982 6.93103 2.63782C7.01103 2.71782 7.03903 2.81782 7.01503 2.93782C6.98303 3.06582 6.91103 3.16982 6.79903 3.24982C6.69503 3.32182 6.57903 3.35782 6.45103 3.35782C6.32303 3.35782 6.21903 3.32182 6.13903 3.24982C6.06703 3.16982 6.04703 3.06582 6.07903 2.93782ZM6.57103 5.57782C6.46703 5.71382 6.34703 5.84982 6.21103 5.98582C6.07503 6.12182 5.93103 6.24182 5.77903 6.34582C5.62703 6.44982 5.46703 6.52982 5.29903 6.58582C5.13103 6.64182 4.95903 6.65782 4.78303 6.63382C4.62303 6.60982 4.51103 6.55382 4.44703 6.46582C4.38303 6.37782 4.34703 6.27382 4.33903 6.15382C4.33903 6.02582 4.36303 5.88582 4.41103 5.73382C4.46703 5.57382 4.53903 5.40982 4.62703 5.24182C4.71503 5.08182 4.81503 4.90582 4.92703 4.71382C5.04703 4.52182 5.18703 4.30982 5.34703 4.07782C5.45103 3.90982 5.56703 3.79782 5.69503 3.74182C5.83103 3.67782 5.93903 3.66582 6.01903 3.70582C6.10703 3.73782 6.15503 3.81382 6.16303 3.93382C6.17103 4.04582 6.11103 4.18982 5.98303 4.36582C5.91103 4.49382 5.80703 4.64582 5.67103 4.82182C5.54303 4.98982 5.42303 5.16182 5.31103 5.33782C5.19903 5.51382 5.11503 5.67782 5.05903 5.82982C5.00303 5.98182 5.01103 6.09782 5.08303 6.17782C5.21103 6.30582 5.43103 6.24982 5.74303 6.00982C5.87903 5.89782 6.00303 5.78182 6.11503 5.66182C6.22703 5.54182 6.30303 5.46182 6.34303 5.42182C6.39903 5.34982 6.45103 5.30582 6.49903 5.28982C6.54703 5.27382 6.58703 5.27382 6.61903 5.28982C6.65103 5.30582 6.66303 5.34182 6.65503 5.39782C6.65503 5.44582 6.62703 5.50582 6.57103 5.57782Z" fill="white"/>
<path d="M1.908 4.71382C1.628 5.12982 1.372 5.50982 1.14 5.85382C0.908 6.19782 0.736 6.46182 0.624 6.64582C0.552 6.77382 0.468 6.86182 0.372 6.90982C0.284 6.95782 0.208 6.97382 0.144 6.95782C0.08 6.94982 0.036 6.90982 0.012 6.83782C-0.012 6.77382 7.45058e-09 6.69382 0.048 6.59782L1.152 4.62982C1.112 4.62982 1.076 4.63382 1.044 4.64182C1.02 4.64182 0.988 4.64182 0.948 4.64182C0.868 4.64982 0.8 4.63382 0.744 4.59382C0.696 4.55382 0.68 4.48982 0.696 4.40182C0.704 4.33782 0.732 4.28182 0.78 4.23382C0.836 4.17782 0.908 4.14182 0.996 4.12582C1.036 4.11782 1.108 4.11382 1.212 4.11382C1.316 4.11382 1.392 4.10982 1.44 4.10182L3.528 0.393818C3.616 0.241818 3.74 0.133818 3.9 0.0698186C4.068 0.00581848 4.224 -0.0141817 4.368 0.00981795C4.512 0.0338181 4.62 0.0978182 4.692 0.201818C4.764 0.305818 4.752 0.445819 4.656 0.621819C4.552 0.805818 4.42 1.02582 4.26 1.28182C4.1 1.52982 3.924 1.79782 3.732 2.08582C3.54 2.36582 3.336 2.66182 3.12 2.97382C2.912 3.28582 2.7 3.59382 2.484 3.89782C3.1 3.68982 3.704 3.32582 4.296 2.80582C4.896 2.28582 5.464 1.61382 6 0.789818C6.152 0.541818 6.324 0.361818 6.516 0.249818C6.708 0.137818 6.876 0.0858184 7.02 0.0938183C7.172 0.101818 7.28 0.165818 7.344 0.285818C7.408 0.405818 7.392 0.577819 7.296 0.801818C6.584 1.84982 5.84 2.65382 5.064 3.21382C4.288 3.77382 3.472 4.15782 2.616 4.36582C3.192 4.53382 3.588 4.78582 3.804 5.12182C4.02 5.44982 4.012 5.85782 3.78 6.34582C3.708 6.49782 3.628 6.60182 3.54 6.65782C3.46 6.70582 3.384 6.71782 3.312 6.69382C3.248 6.67782 3.2 6.63782 3.168 6.57382C3.136 6.50982 3.14 6.44182 3.18 6.36982C3.3 6.15382 3.348 5.95382 3.324 5.76982C3.308 5.58582 3.24 5.42182 3.12 5.27782C3 5.13382 2.836 5.01382 2.628 4.91782C2.42 4.82182 2.184 4.75382 1.92 4.71382H1.908Z" fill="white"/>
</svg>
